<mxfile host="Electron" modified="2023-11-14T15:39:30.253Z" agent="Mozilla/5.0 (Windows NT 10.0; Win64; x64) AppleWebKit/537.36 (KHTML, like Gecko) draw.io/22.0.2 Chrome/114.0.5735.289 Electron/25.8.4 Safari/537.36" etag="ZFxmDs84kSYuCeGMHm_M" version="22.0.2" type="device">
  <diagram name="Página-1" id="5j-ww4zHZG7wsbymvLwp">
    <mxGraphModel dx="880" dy="532" grid="1" gridSize="10" guides="1" tooltips="1" connect="1" arrows="1" fold="1" page="1" pageScale="1" pageWidth="827" pageHeight="1169" math="0" shadow="0">
      <root>
        <mxCell id="0" />
        <mxCell id="1" parent="0" />
        <mxCell id="kYT57yn9HTB8OajrBAQV-72" value="" style="rounded=0;whiteSpace=wrap;html=1;strokeColor=default;fontFamily=Helvetica;fontSize=12;fontColor=default;fillColor=default;sketch=1;curveFitting=1;jiggle=2;" parent="1" vertex="1">
          <mxGeometry x="50" y="120" width="750" height="560" as="geometry" />
        </mxCell>
        <mxCell id="kYT57yn9HTB8OajrBAQV-35" value="" style="group;sketch=1;curveFitting=1;jiggle=2;" parent="1" vertex="1" connectable="0">
          <mxGeometry x="80" y="288" width="210" height="330" as="geometry" />
        </mxCell>
        <mxCell id="kYT57yn9HTB8OajrBAQV-29" value="" style="rounded=0;whiteSpace=wrap;html=1;strokeColor=default;fontFamily=Helvetica;fontSize=12;fontColor=default;fillColor=default;sketch=1;curveFitting=1;jiggle=2;" parent="kYT57yn9HTB8OajrBAQV-35" vertex="1">
          <mxGeometry width="210" height="330" as="geometry" />
        </mxCell>
        <mxCell id="kYT57yn9HTB8OajrBAQV-30" value="" style="whiteSpace=wrap;html=1;aspect=fixed;rounded=0;shadow=0;glass=0;sketch=1;curveFitting=1;jiggle=2;fillColor=#dae8fc;strokeColor=#6c8ebf;" parent="kYT57yn9HTB8OajrBAQV-35" vertex="1">
          <mxGeometry x="55" y="20" width="100" height="100" as="geometry" />
        </mxCell>
        <mxCell id="kYT57yn9HTB8OajrBAQV-31" value="" style="endArrow=none;html=1;rounded=0;fontFamily=Helvetica;fontSize=12;fontColor=default;entryX=1;entryY=0;entryDx=0;entryDy=0;exitX=0;exitY=1;exitDx=0;exitDy=0;movable=1;resizable=1;rotatable=1;deletable=1;editable=1;locked=0;connectable=1;sketch=1;curveFitting=1;jiggle=2;" parent="kYT57yn9HTB8OajrBAQV-35" source="kYT57yn9HTB8OajrBAQV-30" target="kYT57yn9HTB8OajrBAQV-30" edge="1">
          <mxGeometry width="50" height="50" relative="1" as="geometry">
            <mxPoint x="200" y="170" as="sourcePoint" />
            <mxPoint x="250" y="120" as="targetPoint" />
          </mxGeometry>
        </mxCell>
        <mxCell id="kYT57yn9HTB8OajrBAQV-32" value="" style="endArrow=none;html=1;rounded=0;fontFamily=Helvetica;fontSize=12;fontColor=default;entryX=0;entryY=0;entryDx=0;entryDy=0;exitX=1;exitY=1;exitDx=0;exitDy=0;movable=1;resizable=1;rotatable=1;deletable=1;editable=1;locked=0;connectable=1;sketch=1;curveFitting=1;jiggle=2;" parent="kYT57yn9HTB8OajrBAQV-35" source="kYT57yn9HTB8OajrBAQV-30" target="kYT57yn9HTB8OajrBAQV-30" edge="1">
          <mxGeometry width="50" height="50" relative="1" as="geometry">
            <mxPoint x="164" y="120" as="sourcePoint" />
            <mxPoint x="264" y="20" as="targetPoint" />
          </mxGeometry>
        </mxCell>
        <mxCell id="kYT57yn9HTB8OajrBAQV-33" value="&lt;h1 style=&quot;&quot;&gt;PRODUTO A&lt;/h1&gt;&lt;p style=&quot;&quot;&gt;&lt;font style=&quot;font-size: 16px;&quot;&gt;Descrição&lt;/font&gt;&lt;/p&gt;" style="text;html=1;strokeColor=default;fillColor=none;spacing=5;spacingTop=-20;whiteSpace=wrap;overflow=hidden;rounded=0;fontSize=12;fontFamily=Helvetica;fontColor=default;sketch=1;curveFitting=1;jiggle=2;align=center;" parent="kYT57yn9HTB8OajrBAQV-35" vertex="1">
          <mxGeometry x="10" y="130" width="190" height="80" as="geometry" />
        </mxCell>
        <mxCell id="kYT57yn9HTB8OajrBAQV-34" value="&lt;font style=&quot;font-size: 24px;&quot;&gt;&lt;b&gt;R$ 00,00&lt;/b&gt;&lt;/font&gt;" style="text;html=1;strokeColor=#C73500;fillColor=#fa6800;align=center;verticalAlign=middle;whiteSpace=wrap;rounded=0;fontSize=12;fontFamily=Helvetica;sketch=1;curveFitting=1;jiggle=2;fontColor=#000000;" parent="kYT57yn9HTB8OajrBAQV-35" vertex="1">
          <mxGeometry x="10" y="222" width="190" height="30" as="geometry" />
        </mxCell>
        <mxCell id="Ryg9S8fvxbuA4_PFXU3D-3" value="&lt;font style=&quot;font-size: 16px;&quot;&gt;&lt;b&gt;0&lt;/b&gt;&lt;/font&gt;" style="rounded=0;whiteSpace=wrap;html=1;sketch=1;curveFitting=1;jiggle=2;fillColor=#bac8d3;strokeColor=#23445d;" vertex="1" parent="kYT57yn9HTB8OajrBAQV-35">
          <mxGeometry x="30" y="272" width="50" height="40" as="geometry" />
        </mxCell>
        <mxCell id="Ryg9S8fvxbuA4_PFXU3D-4" value="&lt;font style=&quot;font-size: 16px;&quot;&gt;&lt;b&gt;+&lt;/b&gt;&lt;/font&gt;" style="rounded=0;whiteSpace=wrap;html=1;sketch=1;curveFitting=1;jiggle=2;fillColor=#FA6800;strokeColor=#C73500;" vertex="1" parent="kYT57yn9HTB8OajrBAQV-35">
          <mxGeometry x="80" y="272" width="50" height="40" as="geometry" />
        </mxCell>
        <mxCell id="Ryg9S8fvxbuA4_PFXU3D-5" value="&lt;font style=&quot;font-size: 16px;&quot;&gt;&lt;b&gt;-&lt;/b&gt;&lt;/font&gt;" style="rounded=0;whiteSpace=wrap;html=1;sketch=1;curveFitting=1;jiggle=2;" vertex="1" parent="kYT57yn9HTB8OajrBAQV-35">
          <mxGeometry x="130" y="272" width="50" height="40" as="geometry" />
        </mxCell>
        <mxCell id="kYT57yn9HTB8OajrBAQV-80" value="&lt;font style=&quot;font-size: 24px;&quot;&gt;&lt;b&gt;0&lt;/b&gt;&lt;/font&gt;" style="rounded=0;whiteSpace=wrap;html=1;strokeColor=default;fontFamily=Helvetica;fontSize=12;fontColor=default;fillColor=default;sketch=1;curveFitting=1;jiggle=2;" parent="1" vertex="1">
          <mxGeometry x="680" y="152.25" width="90" height="47.75" as="geometry" />
        </mxCell>
        <mxCell id="kYT57yn9HTB8OajrBAQV-87" value="&lt;font style=&quot;font-size: 24px;&quot;&gt;&lt;b&gt;Catálogo e seleção de produto&lt;/b&gt;&lt;/font&gt;" style="text;html=1;align=center;verticalAlign=middle;resizable=0;points=[];autosize=1;strokeColor=#6c8ebf;fillColor=#dae8fc;fontSize=12;fontFamily=Helvetica;sketch=1;curveFitting=1;jiggle=2;" parent="1" vertex="1">
          <mxGeometry x="240" y="41" width="370" height="40" as="geometry" />
        </mxCell>
        <mxCell id="kYT57yn9HTB8OajrBAQV-88" value="&lt;font size=&quot;1&quot; style=&quot;&quot;&gt;&lt;b style=&quot;font-size: 24px;&quot;&gt;04/09/2023&lt;/b&gt;&lt;/font&gt;" style="text;html=1;align=center;verticalAlign=middle;resizable=0;points=[];autosize=1;strokeColor=#6c8ebf;fillColor=#dae8fc;fontSize=12;fontFamily=Helvetica;sketch=1;curveFitting=1;jiggle=2;" parent="1" vertex="1">
          <mxGeometry x="50" y="730" width="140" height="40" as="geometry" />
        </mxCell>
        <mxCell id="Ryg9S8fvxbuA4_PFXU3D-1" value="" style="verticalLabelPosition=bottom;shadow=0;dashed=0;align=center;html=1;verticalAlign=top;strokeWidth=1;shape=mxgraph.mockup.misc.shoppingCart;strokeColor=#000000;sketch=1;curveFitting=1;jiggle=2;" vertex="1" parent="1">
          <mxGeometry x="610" y="152.25" width="50" height="50" as="geometry" />
        </mxCell>
        <mxCell id="Ryg9S8fvxbuA4_PFXU3D-37" value="" style="group;sketch=1;curveFitting=1;jiggle=2;" vertex="1" connectable="0" parent="1">
          <mxGeometry x="320" y="288" width="210" height="330" as="geometry" />
        </mxCell>
        <mxCell id="Ryg9S8fvxbuA4_PFXU3D-38" value="" style="rounded=0;whiteSpace=wrap;html=1;strokeColor=default;fontFamily=Helvetica;fontSize=12;fontColor=default;fillColor=default;sketch=1;curveFitting=1;jiggle=2;" vertex="1" parent="Ryg9S8fvxbuA4_PFXU3D-37">
          <mxGeometry width="210" height="330" as="geometry" />
        </mxCell>
        <mxCell id="Ryg9S8fvxbuA4_PFXU3D-39" value="" style="whiteSpace=wrap;html=1;aspect=fixed;rounded=0;shadow=0;glass=0;sketch=1;curveFitting=1;jiggle=2;fillColor=#dae8fc;strokeColor=#6c8ebf;" vertex="1" parent="Ryg9S8fvxbuA4_PFXU3D-37">
          <mxGeometry x="55" y="20" width="100" height="100" as="geometry" />
        </mxCell>
        <mxCell id="Ryg9S8fvxbuA4_PFXU3D-40" value="" style="endArrow=none;html=1;rounded=0;fontFamily=Helvetica;fontSize=12;fontColor=default;entryX=1;entryY=0;entryDx=0;entryDy=0;exitX=0;exitY=1;exitDx=0;exitDy=0;movable=1;resizable=1;rotatable=1;deletable=1;editable=1;locked=0;connectable=1;sketch=1;curveFitting=1;jiggle=2;" edge="1" parent="Ryg9S8fvxbuA4_PFXU3D-37" source="Ryg9S8fvxbuA4_PFXU3D-39" target="Ryg9S8fvxbuA4_PFXU3D-39">
          <mxGeometry width="50" height="50" relative="1" as="geometry">
            <mxPoint x="200" y="170" as="sourcePoint" />
            <mxPoint x="250" y="120" as="targetPoint" />
          </mxGeometry>
        </mxCell>
        <mxCell id="Ryg9S8fvxbuA4_PFXU3D-41" value="" style="endArrow=none;html=1;rounded=0;fontFamily=Helvetica;fontSize=12;fontColor=default;entryX=0;entryY=0;entryDx=0;entryDy=0;exitX=1;exitY=1;exitDx=0;exitDy=0;movable=1;resizable=1;rotatable=1;deletable=1;editable=1;locked=0;connectable=1;sketch=1;curveFitting=1;jiggle=2;" edge="1" parent="Ryg9S8fvxbuA4_PFXU3D-37" source="Ryg9S8fvxbuA4_PFXU3D-39" target="Ryg9S8fvxbuA4_PFXU3D-39">
          <mxGeometry width="50" height="50" relative="1" as="geometry">
            <mxPoint x="164" y="120" as="sourcePoint" />
            <mxPoint x="264" y="20" as="targetPoint" />
          </mxGeometry>
        </mxCell>
        <mxCell id="Ryg9S8fvxbuA4_PFXU3D-42" value="&lt;h1 style=&quot;&quot;&gt;PRODUTO B&lt;/h1&gt;&lt;p style=&quot;&quot;&gt;&lt;font style=&quot;font-size: 16px;&quot;&gt;Descrição&lt;/font&gt;&lt;/p&gt;" style="text;html=1;strokeColor=default;fillColor=none;spacing=5;spacingTop=-20;whiteSpace=wrap;overflow=hidden;rounded=0;fontSize=12;fontFamily=Helvetica;fontColor=default;sketch=1;curveFitting=1;jiggle=2;align=center;" vertex="1" parent="Ryg9S8fvxbuA4_PFXU3D-37">
          <mxGeometry x="10" y="130" width="190" height="80" as="geometry" />
        </mxCell>
        <mxCell id="Ryg9S8fvxbuA4_PFXU3D-43" value="&lt;font style=&quot;font-size: 24px;&quot;&gt;&lt;b&gt;R$ 00,00&lt;/b&gt;&lt;/font&gt;" style="text;html=1;strokeColor=#C73500;fillColor=#fa6800;align=center;verticalAlign=middle;whiteSpace=wrap;rounded=0;fontSize=12;fontFamily=Helvetica;sketch=1;curveFitting=1;jiggle=2;fontColor=#000000;" vertex="1" parent="Ryg9S8fvxbuA4_PFXU3D-37">
          <mxGeometry x="10" y="222" width="190" height="30" as="geometry" />
        </mxCell>
        <mxCell id="Ryg9S8fvxbuA4_PFXU3D-44" value="&lt;font style=&quot;font-size: 16px;&quot;&gt;&lt;b&gt;0&lt;/b&gt;&lt;/font&gt;" style="rounded=0;whiteSpace=wrap;html=1;sketch=1;curveFitting=1;jiggle=2;fillColor=#bac8d3;strokeColor=#23445d;" vertex="1" parent="Ryg9S8fvxbuA4_PFXU3D-37">
          <mxGeometry x="30" y="272" width="50" height="40" as="geometry" />
        </mxCell>
        <mxCell id="Ryg9S8fvxbuA4_PFXU3D-45" value="&lt;font style=&quot;font-size: 16px;&quot;&gt;&lt;b&gt;+&lt;/b&gt;&lt;/font&gt;" style="rounded=0;whiteSpace=wrap;html=1;sketch=1;curveFitting=1;jiggle=2;fillColor=#FA6800;strokeColor=#C73500;" vertex="1" parent="Ryg9S8fvxbuA4_PFXU3D-37">
          <mxGeometry x="80" y="272" width="50" height="40" as="geometry" />
        </mxCell>
        <mxCell id="Ryg9S8fvxbuA4_PFXU3D-46" value="&lt;font style=&quot;font-size: 16px;&quot;&gt;&lt;b&gt;-&lt;/b&gt;&lt;/font&gt;" style="rounded=0;whiteSpace=wrap;html=1;sketch=1;curveFitting=1;jiggle=2;" vertex="1" parent="Ryg9S8fvxbuA4_PFXU3D-37">
          <mxGeometry x="130" y="272" width="50" height="40" as="geometry" />
        </mxCell>
        <mxCell id="Ryg9S8fvxbuA4_PFXU3D-79" value="" style="group;sketch=1;curveFitting=1;jiggle=2;" vertex="1" connectable="0" parent="1">
          <mxGeometry x="560" y="289" width="210" height="330" as="geometry" />
        </mxCell>
        <mxCell id="Ryg9S8fvxbuA4_PFXU3D-80" value="" style="rounded=0;whiteSpace=wrap;html=1;strokeColor=default;fontFamily=Helvetica;fontSize=12;fontColor=default;fillColor=default;sketch=1;curveFitting=1;jiggle=2;" vertex="1" parent="Ryg9S8fvxbuA4_PFXU3D-79">
          <mxGeometry width="210" height="330" as="geometry" />
        </mxCell>
        <mxCell id="Ryg9S8fvxbuA4_PFXU3D-81" value="" style="whiteSpace=wrap;html=1;aspect=fixed;rounded=0;shadow=0;glass=0;sketch=1;curveFitting=1;jiggle=2;fillColor=#dae8fc;strokeColor=#6c8ebf;" vertex="1" parent="Ryg9S8fvxbuA4_PFXU3D-79">
          <mxGeometry x="55" y="20" width="100" height="100" as="geometry" />
        </mxCell>
        <mxCell id="Ryg9S8fvxbuA4_PFXU3D-82" value="" style="endArrow=none;html=1;rounded=0;fontFamily=Helvetica;fontSize=12;fontColor=default;entryX=1;entryY=0;entryDx=0;entryDy=0;exitX=0;exitY=1;exitDx=0;exitDy=0;movable=1;resizable=1;rotatable=1;deletable=1;editable=1;locked=0;connectable=1;sketch=1;curveFitting=1;jiggle=2;" edge="1" parent="Ryg9S8fvxbuA4_PFXU3D-79" source="Ryg9S8fvxbuA4_PFXU3D-81" target="Ryg9S8fvxbuA4_PFXU3D-81">
          <mxGeometry width="50" height="50" relative="1" as="geometry">
            <mxPoint x="200" y="170" as="sourcePoint" />
            <mxPoint x="250" y="120" as="targetPoint" />
          </mxGeometry>
        </mxCell>
        <mxCell id="Ryg9S8fvxbuA4_PFXU3D-83" value="" style="endArrow=none;html=1;rounded=0;fontFamily=Helvetica;fontSize=12;fontColor=default;entryX=0;entryY=0;entryDx=0;entryDy=0;exitX=1;exitY=1;exitDx=0;exitDy=0;movable=1;resizable=1;rotatable=1;deletable=1;editable=1;locked=0;connectable=1;sketch=1;curveFitting=1;jiggle=2;" edge="1" parent="Ryg9S8fvxbuA4_PFXU3D-79" source="Ryg9S8fvxbuA4_PFXU3D-81" target="Ryg9S8fvxbuA4_PFXU3D-81">
          <mxGeometry width="50" height="50" relative="1" as="geometry">
            <mxPoint x="164" y="120" as="sourcePoint" />
            <mxPoint x="264" y="20" as="targetPoint" />
          </mxGeometry>
        </mxCell>
        <mxCell id="Ryg9S8fvxbuA4_PFXU3D-84" value="&lt;h1 style=&quot;&quot;&gt;PRODUTO C&lt;/h1&gt;&lt;p style=&quot;&quot;&gt;&lt;font style=&quot;font-size: 16px;&quot;&gt;Descrição&lt;/font&gt;&lt;/p&gt;" style="text;html=1;strokeColor=default;fillColor=none;spacing=5;spacingTop=-20;whiteSpace=wrap;overflow=hidden;rounded=0;fontSize=12;fontFamily=Helvetica;fontColor=default;sketch=1;curveFitting=1;jiggle=2;align=center;" vertex="1" parent="Ryg9S8fvxbuA4_PFXU3D-79">
          <mxGeometry x="10" y="130" width="190" height="80" as="geometry" />
        </mxCell>
        <mxCell id="Ryg9S8fvxbuA4_PFXU3D-85" value="&lt;font style=&quot;font-size: 24px;&quot;&gt;&lt;b&gt;R$ 00,00&lt;/b&gt;&lt;/font&gt;" style="text;html=1;strokeColor=#C73500;fillColor=#fa6800;align=center;verticalAlign=middle;whiteSpace=wrap;rounded=0;fontSize=12;fontFamily=Helvetica;sketch=1;curveFitting=1;jiggle=2;fontColor=#000000;" vertex="1" parent="Ryg9S8fvxbuA4_PFXU3D-79">
          <mxGeometry x="10" y="222" width="190" height="30" as="geometry" />
        </mxCell>
        <mxCell id="Ryg9S8fvxbuA4_PFXU3D-86" value="&lt;font style=&quot;font-size: 16px;&quot;&gt;&lt;b&gt;0&lt;/b&gt;&lt;/font&gt;" style="rounded=0;whiteSpace=wrap;html=1;sketch=1;curveFitting=1;jiggle=2;fillColor=#bac8d3;strokeColor=#23445d;" vertex="1" parent="Ryg9S8fvxbuA4_PFXU3D-79">
          <mxGeometry x="30" y="272" width="50" height="40" as="geometry" />
        </mxCell>
        <mxCell id="Ryg9S8fvxbuA4_PFXU3D-87" value="&lt;font style=&quot;font-size: 16px;&quot;&gt;&lt;b&gt;+&lt;/b&gt;&lt;/font&gt;" style="rounded=0;whiteSpace=wrap;html=1;sketch=1;curveFitting=1;jiggle=2;fillColor=#FA6800;strokeColor=#C73500;" vertex="1" parent="Ryg9S8fvxbuA4_PFXU3D-79">
          <mxGeometry x="80" y="272" width="50" height="40" as="geometry" />
        </mxCell>
        <mxCell id="Ryg9S8fvxbuA4_PFXU3D-88" value="&lt;font style=&quot;font-size: 16px;&quot;&gt;&lt;b&gt;-&lt;/b&gt;&lt;/font&gt;" style="rounded=0;whiteSpace=wrap;html=1;sketch=1;curveFitting=1;jiggle=2;" vertex="1" parent="Ryg9S8fvxbuA4_PFXU3D-79">
          <mxGeometry x="130" y="272" width="50" height="40" as="geometry" />
        </mxCell>
      </root>
    </mxGraphModel>
  </diagram>
</mxfile>
